<svg fill="none" xmlns="http://www.w3.org/2000/svg" viewBox="0 0 43 24"><path d="M41 13s0 .2.1.1v-.4c.2 0 .2 0 .2.2l-.3.4-.2.3.1.2h-.1c-.1.3 0 .5-.2.7l.1.3v1.6c0 .2 0 .5-.2.6l-.2.1c-.1 0 0-.2 0-.2l-.2-.4c-.1 0-.3.1-.3-.2l-.2.2v-.2c.2-.4.1-.8.2-1.3v-.3c-.2 0 0-.2-.1-.3-.3-.3-.4-.4-.3-.8l.2-.7v-1l.1-.5v-.5l-.3-.2-.1-.4V10l.3-1.3.2-.7c0-.4.2-.7.1-1v-.2l.2.2c0-.2.2-.2.2-.5l-.3.3.4-1.6v-.4l.1-.3c-.3-.1-.6-.3-1-.3h-.6l-.6-.1-.5-.2h-1.6l-.2-.1s-.2-.1-.2 0c-.3 0-.4-.2-.6-.4l-.2-.1h-.8v-.1l-.7-.1-.9-.3h-1.3c0-.2-.3-.2-.4-.2h-.6l-.5-.2h-1.2l-.2-.4h-.1a1 1 0 0 0-.9-.1h-.8c-.2-.4-.2-.7.1-1h1.5c.2.2.3 0 .4 0h.8l.9.2.8.1.3-.1h.4c.2 0 .5 0 .7.2h.2l1.6.2h.6c.3.1.6.3.9.2.1 0 .2 0 .3.2h.3l.4.1.7.1.8.2c.1.1.3.2.4.1l1.2.2h.2l1.2.2.2.1h.3l.4.1h.2v.5l-.3.6-.4 2.3V7l-.1.2v.2l-.1.3V8c-.2.1-.2.1 0 .3h-.2v1l-.1.2c0 .3 0 .7-.2 1l.1.4c0 .1-.2.2 0 .4l-.1.5V13Zm0-6.6Zm0-2.6h-.1v-.2h-.2c-.2 0-.5 0-.7-.2-.3 0-.5 0-.7-.2l-.1.2c-.1-.2-.3-.3-.5-.2l.4.2.7.1.4.1c.2.1.4.2.8 0 0 .1-.2.2 0 .2Zm.5 0-.3.4h.2l-.1.2v-.1l.2-.4ZM38 3.2l.4.2.1-.1-.3-.2-.1.1c-.1 0-.3-.1-.4 0h-.1.1l.1.1.2-.1Zm1.1.8v-.2H39l.1.2Zm-4.8-1.3h.1-.1Zm5.6 6.2h.1v-.1.1ZM41 6Zm.3-1.3v.1Zm-7.5-2.1Zm1.4.2Zm5 14.7-.2-.3v.1h-.3s-.1.1 0 .2h.5Zm-.2.8.1-.3v-.1c-.3.2-.3.2-.2.6 0 0 .2 0 .2-.2Zm-.8.5h.2V18v.3l-.2.5Z" fill="#3B3B3B"/><path d="M40 16.8c-.1 0-.2.1-.2.3l.2-.3Zm-1.1 2.8v-.1.1Zm.6-1.2v.2-.2Zm2.3-7.9v.1-.1Zm.2.3Zm-2.6 9.1v-.1ZM30.4 5ZM28 2h-.1c0 .1 0 0 0 0Zm.2 0Zm13.5 6ZM35 3.7h.1Zm5.2 14.5s-.1-.1-.1 0h.1Zm-.2-.3v-.1Zm0 1Zm-.8-3.1Zm-.2 4.1Zm1.3-1.3Zm-.8-1.6ZM32.6 3Zm7.1 15.9Zm1.4-4.7Zm-.3 2.1Zm1.5-5.6ZM28.3.5Zm2.5.5ZM29 .9Zm12.2 1.9h.1Zm.1 10.5Zm-.3-.8h.1Zm0-1.2ZM30.7 2.8Zm1.2.3Zm.7.4Zm3.7.5Zm-7.7-.6Zm11.6 14.4Zm-.2-1Zm.1 3ZM34.4 4.9Zm4.8 15.3Zm-.4-2.2Zm2.2-6.2Zm-.8 6Zm.1.3Zm-1.1 2.1ZM9.4 22.6c-.1 0-.3 0-.2.2h.6c0 .2-.1.2-.3.2l-.6-.3c0-.2-.3-.2-.5-.3l-.3.1v-.2c-.3 0-.6 0-.9-.2H5.6l-1.1-.4c-.4 0-.6-.2-.7-.4l-.2-.3c.2-.1.2.2.3.1l.5-.1c.1-.2 0-.4.4-.4l-.2-.2H5c.5.4 1 .5 1.6.6H7c.1-.2.3 0 .4 0l.1-.1c.4-.3.4-.3 1-.2l1 .2H12l.3-.4.3-.2h.5l1.7-.1.9-.1h.7l.7-.3h.2c-.1 0-.2 0-.3.2h.8c-.1-.2-.5 0-.5-.2l1.2-.3 1.3-.4.6-.2.5-.2c.7-.3 1.3-.4 2-.8h.2l.7-.6h.2a7.3 7.3 0 0 1 1.6-.8l.7-.6 1-.6c.2-.1.2-.2.2-.3l.3-.1.4-.2c.3-.3.6-.4.8-.4l.4-.1 1-1h.1l.9-.6 1.2-1 .4-.4 1-1 .7-.7.6-.7c.3-.2.5-.3.7-.7l.4-.4.3-.4c0-.2.3-.2.3-.4l.2-.2v-.3h.6l.1-.1c.4-.3.7-.8 1-1.3l.3-.7.5-.5c.4 0 .6.1.5.7v.1l-.2.1-1.2 1.8c-.3.2-.3.5-.5.7l-.3.6c0 .2-.3.3-.4.5l-1.1 1.2v.1l-1 .8-.2.6-.4.5a6 6 0 0 1-1.3 1c-.6.8-1.4 1.4-2.1 2l-.9.7c-.3.3-.8.5-1.1.9l-.6.3h-.2l-.2.3c-.2 0-.3 0-.5.2l-1 .7-1.4.7-.5.2c-.3.4-.8.5-1.2.7l-.2.2-1.2.5h-.3c-.1.2-.2.3-.4.2l-.3.1-.7.5h-.4l-2.2.7-.5.2-.5.1-.4.2v-.1c-.2 0-.2 0-.3.2-.3-.2-.3-.2-.4 0h-.3c-.3.2-.8.2-1.2.2h-.3c-.5 0-1 .3-1.6.2-.2 0-.3 0-.5.2-.1 0-.2-.3-.5-.1h-1l-.7.2h-.5c-.2 0-.2 0-.1-.1Zm8.7-2s.1 0 0 0c.1 0 0 0 0 0Zm3.4-1.4h.7l.8-.4.3-.1c.2-.2.5-.3.8-.3V18c.3 0 .5 0 .8-.3l-.7.2v.1l-1 .4-.4.2a2 2 0 0 0-1 .6c0-.1 0-.2-.2-.1Zm-.6.6-.3-.2-.1.2h-.2v.1h.2l.4-.1Zm4.9-2.5-.7.3v.2l.5-.3.1-.2c.2 0 .4 0 .5-.3h.3v-.1l-.3.1H26c-.2.1-.2.2-.2.3Zm-2 .4.3.1c0-.2 0-.2-.3 0Zm7.1-4.1-.2.2h.1l.1-.2Zm-16.2 6.9h.2-.2Zm4 0h-.1.1ZM20 20Zm11.3-6.7Zm-1.8 1.4Zm-26.3 6 .6-.1h-.2v-.2l.1-.1-.3-.2s-.1 0 0 .1l-.2.5Zm-.9-.5.4.2h.1c-.2-.4-.2-.4-.7-.5 0 .1 0 .2.2.3ZM2 19v.2l1 .5c-.1-.2-.4-.2-.5-.3l-.4-.3Z" fill="#3B3B3B"/><path d="m4.3 20.8-.3-.4c0 .2 0 .2.3.4Zm-3.1-2.6v.1l.1.1v-.1Zm1.1 1.3h-.2.2ZM13 23.3Zm-.3.3Zm-12-5v.1-.1ZM33.8 7.3v-.1h-.1c0 .1 0 0 0 0Zm4.5-1.7ZM38 6v.1ZM16.5 22.2Zm12.7-8.4H29v.1ZM2.4 20.5c0-.1.2-.2 0-.3v.3Zm.4-.1H3Zm-1.2-.6Zm4 .2v.1ZM.9 18.2Zm.9 2.1ZM4 20h.1Zm28.6-8.7ZM1.7 19.5v.1Zm5.9 3.2Zm-2.9-.8Zm8.1 2ZM39 7Zm-3 3.3Zm2-2.5h.1ZM22.5 19.9ZM8.8 23Zm1.2-.3Zm1.8-.2ZM34.8 9v.1Zm-1.5 1.4Zm-1 .6Zm-4.8 4Zm9.2-9.2ZM2.8 20.6Zm1.5.2Zm-4-1.4Zm29-7.2ZM.4 18.3ZM3 19Zm8 3.6Zm-8.2-2Zm-.4-.1Zm-2-2.2Z" fill="#3B3B3B"/></svg>