<svg width="180" height="121" viewBox="0 0 180 121" fill="none" xmlns="http://www.w3.org/2000/svg"><g clip-path="url(#a)"><g filter="url(#b)"><path d="m10.988 72.448 25.363-3.721c3.846-.565 7.346 1.961 7.83 5.65l3.07 23.384c.485 3.688-2.233 7.126-6.078 7.69l-25.364 3.721c-3.845.564-7.346-1.962-7.83-5.65l-3.07-23.384c-.485-3.688 2.233-7.126 6.079-7.69Z" fill="#F7F7F7"/><path d="m10.988 72.448 25.363-3.721c3.846-.565 7.346 1.961 7.83 5.65l3.07 23.384c.485 3.688-2.233 7.126-6.078 7.69l-25.364 3.721c-3.845.564-7.346-1.962-7.83-5.65l-3.07-23.384c-.485-3.688 2.233-7.126 6.079-7.69Z" stroke="#3B3B3B" stroke-width="1.5"/></g><path d="m17.855 101.743-4.638-20.987a1.352 1.352 0 0 1 .972-1.567l17.736-4.431a1.305 1.305 0 0 1 1.632.959c.005.021.009.042.012.064l4.22 23.048a1.3 1.3 0 0 1-1.047 1.515 25.68 25.68 0 0 1-.064.012l-17.319 2.369a1.305 1.305 0 0 1-1.516-1.046l.012.064Z" fill="#FF4785"/><path d="m28.537 78.685-.37-3.108 2.464-.649.627 3.062a.195.195 0 0 1-.297.186l-1.09-.529-.926 1.096a.196.196 0 0 1-.356-.134l-.052.076Zm-2.033 6.988c.106.576 3.456-.3 3.846-.703-.633-3.457-2.756-4.922-6.089-4.313-3.397.62-4.928 2.753-4.424 5.506.868 4.738 7.3 3.695 7.77 6.256.14.768-.098 1.275-.931 1.427-1.026.187-1.516-.319-1.768-2.059-.07-.384-4.004.202-4.038.738.465 4.348 3.38 5.072 6.456 4.51 2.948-.538 5.027-2.572 4.5-5.453-.927-5.058-7.441-3.735-7.898-6.232-.188-1.025.558-1.293 1.07-1.387.385-.07 1.283-.234 1.57 1.698l-.064.012Z" fill="#fff"/><g filter="url(#c)"><path d="m144.352 66.98 24.654 7.007c3.738 1.063 5.889 4.801 4.812 8.362l-6.832 22.579c-1.077 3.561-4.97 5.581-8.708 4.519l-24.654-7.009c-3.738-1.062-5.889-4.8-4.811-8.361l6.831-22.579c1.077-3.561 4.971-5.581 8.708-4.519Z" fill="#F7F7F7"/><path d="m144.352 66.98 24.654 7.007c3.738 1.063 5.889 4.801 4.812 8.362l-6.832 22.579c-1.077 3.561-4.97 5.581-8.708 4.519l-24.654-7.009c-3.738-1.062-5.889-4.8-4.811-8.361l6.831-22.579c1.077-3.561 4.971-5.581 8.708-4.519Z" stroke="#3B3B3B" stroke-width="1.5"/></g><path d="M151.387 87.756a4.519 4.519 0 0 1 8.309-.854 4.52 4.52 0 1 1-8.309.854Z" fill="#1ABCFE"/><path d="M140.136 93.832a4.52 4.52 0 0 1 5.625-3.038l4.332 1.294-1.294 4.331a4.523 4.523 0 0 1-5.625 3.038 4.521 4.521 0 0 1-3.038-5.625Z" fill="#0ACF83"/><path d="m155.268 74.762-2.587 8.663 4.331 1.294a4.522 4.522 0 0 0 2.588-8.663l-4.332-1.294Z" fill="#FF7262"/><path d="M145.311 76.506a4.52 4.52 0 0 0 3.038 5.625l4.332 1.294 2.587-8.663-4.331-1.294a4.521 4.521 0 0 0-5.626 3.038Z" fill="#F24E1E"/><path d="M142.724 85.169a4.52 4.52 0 0 0 3.037 5.625l4.332 1.294 2.588-8.663-4.332-1.294a4.521 4.521 0 0 0-5.625 3.038Z" fill="#A259FF"/><g filter="url(#d)"><path d="m69.986 11.74 31.68-1.957c4.803-.296 8.859 3.183 9.071 7.782l1.348 29.162c.213 4.599-3.499 8.557-8.302 8.854l-31.68 1.957c-4.803.296-8.859-3.182-9.071-7.782l-1.348-29.161c-.213-4.6 3.499-8.558 8.302-8.855Z" fill="#F7F7F7"/><path d="m69.986 11.74 31.68-1.957c4.803-.296 8.859 3.183 9.071 7.782l1.348 29.162c.213 4.599-3.499 8.557-8.302 8.854l-31.68 1.957c-4.803.296-8.859-3.182-9.071-7.782l-1.348-29.161c-.213-4.6 3.499-8.558 8.302-8.855Z" stroke="#3B3B3B" stroke-width="1.5"/></g><path d="m71.566 19.16 28.048-2.533a.21.21 0 0 1 .228.175.212.212 0 0 1-.01.104 31.517 31.517 0 0 1-9.48 13.05 32.549 32.549 0 0 1-17.16 7.046.21.21 0 0 1-.208-.109.208.208 0 0 1-.024-.079l-1.584-17.427a.21.21 0 0 1 .19-.227Z" fill="#FF6250"/><path d="M80.574 51.157a6.281 6.281 0 0 0 5.693-6.823 6.29 6.29 0 0 0-6.831-5.693 6.282 6.282 0 0 0-5.694 6.824 6.29 6.29 0 0 0 6.832 5.692Z" fill="#FFDF90"/><path d="M93.346 49.628c-1.834-.523-2.958-2.378-2.509-4.158l3.503-13.914c.446-1.78 2.295-2.804 4.128-2.289 1.834.523 2.957 2.379 2.508 4.158l-3.5 13.908c-.437 1.787-2.298 2.81-4.13 2.295Z" fill="#36F"/><path d="M52.5 86.5c4.5 1.167 15-.2 21-15m-8 .5 9-1c.167 3 .7 8.3 1.5 9.5M123 37.322c4.5-1.167 15 .2 21 15m-8-.5 9 1c.167-3 .7-8.3 1.5-9.5" stroke="#9B9B9B" stroke-linecap="round" stroke-linejoin="round"/></g><defs><filter id="b" x="-5.897" y="60.898" width="63.955" height="62.102" filterUnits="userSpaceOnUse" color-interpolation-filters="sRGB"><feFlood flood-opacity="0" result="BackgroundImageFix"/><feColorMatrix in="SourceAlpha" values="0 0 0 0 0 0 0 0 0 0 0 0 0 0 0 0 0 0 127 0" result="hardAlpha"/><feOffset dy="3"/><feGaussianBlur stdDeviation="5"/><feComposite in2="hardAlpha" operator="out"/><feColorMatrix values="0 0 0 0 0 0 0 0 0 0 0 0 0 0 0 0 0 0 0.09 0"/><feBlend in2="BackgroundImageFix" result="effect1_dropShadow_8952_11453"/><feBlend in="SourceGraphic" in2="effect1_dropShadow_8952_11453" result="shape"/></filter><filter id="c" x="117.784" y="58.947" width="67.063" height="64.532" filterUnits="userSpaceOnUse" color-interpolation-filters="sRGB"><feFlood flood-opacity="0" result="BackgroundImageFix"/><feColorMatrix in="SourceAlpha" values="0 0 0 0 0 0 0 0 0 0 0 0 0 0 0 0 0 0 127 0" result="hardAlpha"/><feOffset dy="3"/><feGaussianBlur stdDeviation="5"/><feComposite in2="hardAlpha" operator="out"/><feColorMatrix values="0 0 0 0 0 0 0 0 0 0 0 0 0 0 0 0 0 0 0.09 0"/><feBlend in2="BackgroundImageFix" result="effect1_dropShadow_8952_11453"/><feBlend in="SourceGraphic" in2="effect1_dropShadow_8952_11453" result="shape"/></filter><filter id="d" x="50.925" y="2.016" width="71.919" height="69.29" filterUnits="userSpaceOnUse" color-interpolation-filters="sRGB"><feFlood flood-opacity="0" result="BackgroundImageFix"/><feColorMatrix in="SourceAlpha" values="0 0 0 0 0 0 0 0 0 0 0 0 0 0 0 0 0 0 127 0" result="hardAlpha"/><feOffset dy="3"/><feGaussianBlur stdDeviation="5"/><feComposite in2="hardAlpha" operator="out"/><feColorMatrix values="0 0 0 0 0 0 0 0 0 0 0 0 0 0 0 0 0 0 0.09 0"/><feBlend in2="BackgroundImageFix" result="effect1_dropShadow_8952_11453"/><feBlend in="SourceGraphic" in2="effect1_dropShadow_8952_11453" result="shape"/></filter><clipPath id="a"><path fill="#fff" d="M0 0h180v121H0z"/></clipPath></defs></svg>